


<svg width="475" height="472" viewBox="0 0 475 472" fill="none" xmlns="http://www.w3.org/2000/svg" xmlns:xlink="http://www.w3.org/1999/xlink">
<g filter="url(#filter0_f)">
<path d="M137.362 103.167L221.505 91.0272L305.792 80.2103L356.305 146.111L405.73 212.832L372.099 290.873L337.237 368.41L253.094 380.55L168.806 391.366L118.294 325.465L68.8689 258.745L102.499 180.704L137.362 103.167Z" fill="#C4C4C4"/>
<path d="M136.796 99.2485L134.643 99.5591L133.751 101.543L98.8888 179.081L98.8761 179.109L98.8639 179.137L65.2333 257.178L64.3316 259.27L65.6878 261.101L115.113 327.822L115.132 327.848L115.152 327.874L165.664 393.775L167.05 395.583L169.31 395.293L253.598 384.476L253.628 384.472L253.659 384.468L337.802 372.328L339.955 372.018L340.847 370.033L375.71 292.496L375.722 292.468L375.735 292.439L409.365 214.399L410.267 212.306L408.911 210.475L359.486 143.755L359.466 143.729L359.447 143.703L308.934 77.802L307.548 75.9937L305.288 76.2837L221.001 87.1005L220.97 87.1045L220.939 87.1089L136.796 99.2485Z" stroke="url(#paint0_linear)" stroke-width="7.91765"/>
</g>
<mask id="mask0" mask-type="alpha" maskUnits="userSpaceOnUse" x="68" y="80" width="338" height="312">
<path d="M137.362 103.165L221.505 91.0257L305.792 80.2088L356.305 146.11L405.73 212.83L372.099 290.871L337.237 368.408L253.094 380.548L168.806 391.365L118.294 325.464L68.8689 258.743L102.499 180.703L137.362 103.165Z" fill="#C4C4C4"/>
</mask>
<g mask="url(#mask0)">
<rect x="63.8754" y="73.4531" width="340.345" height="345.01" fill="url(#pattern0)"/>
<rect x="63.8754" y="73.4531" width="340.345" height="345.01" fill="#A60E93" fill-opacity="0.2" style="mix-blend-mode:color"/>
</g>
<g opacity="0.55">
<path d="M301.696 324.044L361.431 315.323M375.216 313.143L400.489 308.783M416.571 304.422L441.844 300.062M352.241 326.225L377.514 321.864M382.109 300.062L407.381 295.701M336.159 297.881L361.431 293.521M386.704 280.44L411.976 276.08" stroke="#FF00AA" stroke-width="5.27844"/>
<path d="M85.5896 339.575L139.982 330.882M149.047 328.709L173.977 324.362M74.2579 352.616L99.1877 348.27M130.916 341.749L155.846 337.402M62.9262 333.056L87.856 328.709M108.253 322.188L133.183 317.841" stroke="#E83EA9" stroke-width="5.27844"/>
<path d="M49.9496 179.748L72.0099 175.79M87.5818 173.15L101.856 170.511M104.451 181.068L112.237 159.954M112.237 179.748L120.023 158.635M123.916 166.552L138.191 163.913M142.084 154.676L148.572 162.593L144.679 173.15" stroke="#FF00AA" stroke-width="5.27844"/>
<path d="M325.054 261.564L347.114 257.605M362.686 254.966L376.961 252.327M379.556 262.884L387.342 241.77M387.342 261.564L395.128 240.451M399.021 248.368L413.295 245.729M417.188 236.492L423.676 244.409L419.783 254.966" stroke="#5C84F7" stroke-width="5.27844"/>
<path d="M342.263 358.149L347.656 358.023L353.048 357.982L355.711 362.584L358.298 367.229L355.568 371.958L352.763 376.644L347.37 376.771L341.978 376.812L339.315 372.21L336.728 367.564L339.458 362.836L342.263 358.149Z" fill="#EB42AB"/>
<path d="M360.43 117.98L365.823 117.854L371.216 117.813L373.878 122.415L376.466 127.061L373.735 131.789L370.931 136.475L365.537 136.602L360.145 136.643L357.482 132.041L354.895 127.395L357.626 122.667L360.43 117.98Z" fill="#EB42AB"/>
<path d="M98.3022 355.51L103.696 355.384L109.088 355.343L111.75 359.945L114.338 364.59L111.607 369.319L108.803 374.005L103.409 374.132L98.0172 374.172L95.3547 369.571L92.767 364.925L95.4978 360.197L98.3022 355.51Z" fill="#EB42AB"/>
<path d="M48.9911 297.447L54.3844 297.321L59.7765 297.28L62.4391 301.882L65.0267 306.527L62.2959 311.256L59.4915 315.942L54.0981 316.069L48.706 316.109L46.0435 311.508L43.4558 306.862L46.1866 302.134L48.9911 297.447Z" fill="#EB42AB"/>
<path d="M108.684 107.424L114.077 107.297L119.469 107.256L122.132 111.858L124.719 116.504L121.988 121.232L119.184 125.919L113.791 126.045L108.399 126.086L105.736 121.484L103.148 116.839L105.879 112.11L108.684 107.424Z" fill="#EB42AB"/>
</g>
<defs>
<filter id="filter0_f" x="54.4085" y="66.3911" width="365.782" height="338.794" filterUnits="userSpaceOnUse" color-interpolation-filters="sRGB">
<feFlood flood-opacity="0" result="BackgroundImageFix"/>
<feBlend mode="normal" in="SourceGraphic" in2="BackgroundImageFix" result="shape"/>
<feGaussianBlur stdDeviation="2.69289" result="effect1_foregroundBlur"/>
</filter>
<pattern id="pattern0" patternContentUnits="objectBoundingBox" width="1" height="1">
<use xlink:href="#image0" transform="translate(-0.00950595) scale(0.00106147)"/>
</pattern>
<linearGradient id="paint0_linear" x1="137.362" y1="103.167" x2="337.237" y2="368.41" gradientUnits="userSpaceOnUse">
<stop stop-color="#FFDA2E"/>
<stop offset="1" stop-color="#FF00AA"/>
</linearGradient>
<image id="image0" width="960" height="955" xlink:href="https://avatars0.githubusercontent.com/u/11137944?v=4"/>
</defs>
</svg>


